<svg xmlns="http://www.w3.org/2000/svg" width="1200" height="900" viewBox="0 0 1200 900" fill="none">
<rect width="1200" height="900" rx="60" fill="#F8F4EE"/>
<g opacity=".9">
<circle cx="271" cy="252" r="140" fill="#E6EEF9"/>
<circle cx="578" cy="216" r="105" fill="#F0E9F8"/>
<circle cx="910" cy="294" r="118" fill="#E8F0E7"/>
<circle cx="548" cy="634" r="180" fill="#F4E9DD"/>
</g>
<g stroke-linecap="round" stroke-width="10">
<path d="M264 359c32 9 71 12 109 5 48-8 92-32 138-73" stroke="#8FA0BE"/>
<path d="M563 309c30 12 64 18 101 16 49-3 92-22 139-58" stroke="#A28EC4"/>
<path d="M439 576c49-29 96-36 146-23 58 14 108 48 148 97" stroke="#B89A76"/>
<path d="M320 326c-23 57-31 108-23 153 7 41 24 78 52 111" stroke="#91A48B"/>
</g>
<g>
<circle cx="262" cy="245" r="15" fill="#355C9B"/>
<circle cx="510" cy="291" r="13" fill="#355C9B"/>
<circle cx="568" cy="309" r="13" fill="#7D69A9"/>
<circle cx="800" cy="268" r="13" fill="#7D69A9"/>
<circle cx="439" cy="576" r="13" fill="#B07D3E"/>
<circle cx="733" cy="650" r="13" fill="#B07D3E"/>
</g>
<g>
<rect x="173" y="148" width="178" height="220" rx="88" fill="#D6E4F5"/>
<circle cx="262" cy="215" r="42" fill="#FBFDFF"/>
<path d="M214 301c15-21 30-30 48-30s33 9 48 30" stroke="#6E84A7" stroke-width="9" stroke-linecap="round"/>
<rect x="501" y="129" width="152" height="187" rx="76" fill="#E3D9F0"/>
<circle cx="577" cy="184" r="36" fill="#FCFBFF"/>
<path d="M536 255c13-18 26-26 41-26 16 0 29 8 42 26" stroke="#8B74B7" stroke-width="8" stroke-linecap="round"/>
<rect x="831" y="188" width="168" height="208" rx="84" fill="#DCE7D8"/>
<circle cx="915" cy="250" r="40" fill="#FDFEFD"/>
<path d="M869 333c15-20 31-29 46-29 18 0 33 9 49 29" stroke="#6E8869" stroke-width="9" stroke-linecap="round"/>
<rect x="414" y="492" width="264" height="274" rx="128" fill="#EADFD2"/>
<circle cx="548" cy="574" r="55" fill="#FCFAF7"/>
<path d="M487 690c21-28 42-41 61-41 22 0 43 13 64 41" stroke="#B58A62" stroke-width="10" stroke-linecap="round"/>
</g>
</svg>