<svg xmlns="http://www.w3.org/2000/svg" width="1200" height="900" viewBox="0 0 1200 900" fill="none">
<rect width="1200" height="900" rx="60" fill="#F8F5EF"/>
<circle cx="242" cy="208" r="128" fill="#EDE4D7"/>
<circle cx="604" cy="220" r="136" fill="#E5EEF9"/>
<circle cx="954" cy="214" r="126" fill="#EAF1E7"/>
<path d="M91 584c80-39 149-58 207-58 82 0 134 36 208 36 53 0 99-18 146-38 59-24 121-49 207-49 65 0 142 14 252 57" stroke="#7888A4" stroke-width="18" stroke-linecap="round"/>
<path d="M89 659c78-36 141-53 193-53 75 0 127 33 198 33 51 0 95-16 140-34 57-22 120-44 204-44 61 0 139 14 255 50" stroke="#92A283" stroke-width="12" stroke-linecap="round" opacity=".8"/>
<g>
<rect x="132" y="114" width="235" height="214" rx="32" stroke="#DDD1BF" stroke-width="6"/>
<circle cx="208" cy="200" r="15" fill="#273245"/><circle cx="289" cy="200" r="15" fill="#273245"/>
<path d="M189 254c22 20 43 29 59 29 17 0 38-9 61-29" stroke="#B67D2D" stroke-width="10" stroke-linecap="round"/>
</g>
<g>
<rect x="485" y="118" width="252" height="214" rx="32" stroke="#D5E1F2" stroke-width="6"/>
<circle cx="572" cy="198" r="15" fill="#273245"/><circle cx="653" cy="198" r="15" fill="#273245"/>
<path d="M554 258c24 20 43 29 59 29 16 0 35-9 59-29" stroke="#2E62BA" stroke-width="10" stroke-linecap="round"/>
</g>
<g>
<rect x="824" y="112" width="246" height="214" rx="32" stroke="#D8E2D3" stroke-width="6"/>
<circle cx="907" cy="196" r="15" fill="#273245"/><circle cx="986" cy="196" r="15" fill="#273245"/>
<path d="M889 253c22 19 40 28 57 28 17 0 36-9 58-28" stroke="#5F8259" stroke-width="10" stroke-linecap="round"/>
</g>
</svg>